<mxfile host="app.diagrams.net" agent="Mozilla/5.0 (Windows NT 10.0; Win64; x64) AppleWebKit/537.36 (KHTML, like Gecko) Chrome/131.0.0.0 Safari/537.36" version="25.0.3">
  <diagram id="C5RBs43oDa-KdzZeNtuy" name="Page-1">
    <mxGraphModel dx="1195" dy="762" grid="1" gridSize="10" guides="1" tooltips="1" connect="1" arrows="1" fold="1" page="1" pageScale="1" pageWidth="827" pageHeight="1169" math="0" shadow="0">
      <root>
        <mxCell id="WIyWlLk6GJQsqaUBKTNV-0" />
        <mxCell id="WIyWlLk6GJQsqaUBKTNV-1" parent="WIyWlLk6GJQsqaUBKTNV-0" />
        <mxCell id="qDiHMPchY2UX4QFsWSM1-36" style="edgeStyle=orthogonalEdgeStyle;rounded=0;orthogonalLoop=1;jettySize=auto;html=1;entryX=0.5;entryY=0;entryDx=0;entryDy=0;" edge="1" parent="WIyWlLk6GJQsqaUBKTNV-1" source="qDiHMPchY2UX4QFsWSM1-0" target="qDiHMPchY2UX4QFsWSM1-2">
          <mxGeometry relative="1" as="geometry" />
        </mxCell>
        <mxCell id="qDiHMPchY2UX4QFsWSM1-52" value="" style="edgeStyle=orthogonalEdgeStyle;rounded=0;orthogonalLoop=1;jettySize=auto;html=1;" edge="1" parent="WIyWlLk6GJQsqaUBKTNV-1" source="qDiHMPchY2UX4QFsWSM1-0" target="qDiHMPchY2UX4QFsWSM1-39">
          <mxGeometry relative="1" as="geometry" />
        </mxCell>
        <mxCell id="qDiHMPchY2UX4QFsWSM1-0" value="Mark current node as visited" style="rounded=1;whiteSpace=wrap;html=1;fontSize=12;glass=0;strokeWidth=1;shadow=0;" vertex="1" parent="WIyWlLk6GJQsqaUBKTNV-1">
          <mxGeometry x="180" y="590" width="120" height="40" as="geometry" />
        </mxCell>
        <mxCell id="qDiHMPchY2UX4QFsWSM1-40" value="" style="edgeStyle=orthogonalEdgeStyle;rounded=0;orthogonalLoop=1;jettySize=auto;html=1;" edge="1" parent="WIyWlLk6GJQsqaUBKTNV-1" source="qDiHMPchY2UX4QFsWSM1-2" target="qDiHMPchY2UX4QFsWSM1-39">
          <mxGeometry relative="1" as="geometry" />
        </mxCell>
        <mxCell id="qDiHMPchY2UX4QFsWSM1-2" value="Move to next node in queue" style="rounded=1;whiteSpace=wrap;html=1;fontSize=12;glass=0;strokeWidth=1;shadow=0;" vertex="1" parent="WIyWlLk6GJQsqaUBKTNV-1">
          <mxGeometry x="180" y="670" width="120" height="40" as="geometry" />
        </mxCell>
        <mxCell id="qDiHMPchY2UX4QFsWSM1-17" style="edgeStyle=orthogonalEdgeStyle;rounded=0;orthogonalLoop=1;jettySize=auto;html=1;entryX=0.5;entryY=0;entryDx=0;entryDy=0;" edge="1" parent="WIyWlLk6GJQsqaUBKTNV-1" source="qDiHMPchY2UX4QFsWSM1-15" target="qDiHMPchY2UX4QFsWSM1-16">
          <mxGeometry relative="1" as="geometry" />
        </mxCell>
        <mxCell id="qDiHMPchY2UX4QFsWSM1-15" value="Create list for visited nodes" style="rounded=1;whiteSpace=wrap;html=1;fontSize=12;glass=0;strokeWidth=1;shadow=0;" vertex="1" parent="WIyWlLk6GJQsqaUBKTNV-1">
          <mxGeometry x="180" y="30" width="120" height="40" as="geometry" />
        </mxCell>
        <mxCell id="qDiHMPchY2UX4QFsWSM1-24" style="edgeStyle=orthogonalEdgeStyle;rounded=0;orthogonalLoop=1;jettySize=auto;html=1;entryX=0.5;entryY=0;entryDx=0;entryDy=0;" edge="1" parent="WIyWlLk6GJQsqaUBKTNV-1" source="qDiHMPchY2UX4QFsWSM1-16" target="qDiHMPchY2UX4QFsWSM1-23">
          <mxGeometry relative="1" as="geometry" />
        </mxCell>
        <mxCell id="qDiHMPchY2UX4QFsWSM1-16" value="Create queue for nodes to search" style="rounded=1;whiteSpace=wrap;html=1;fontSize=12;glass=0;strokeWidth=1;shadow=0;" vertex="1" parent="WIyWlLk6GJQsqaUBKTNV-1">
          <mxGeometry x="180" y="110" width="120" height="40" as="geometry" />
        </mxCell>
        <mxCell id="qDiHMPchY2UX4QFsWSM1-27" style="edgeStyle=orthogonalEdgeStyle;rounded=0;orthogonalLoop=1;jettySize=auto;html=1;exitX=0.5;exitY=1;exitDx=0;exitDy=0;entryX=0.5;entryY=0;entryDx=0;entryDy=0;" edge="1" parent="WIyWlLk6GJQsqaUBKTNV-1" source="qDiHMPchY2UX4QFsWSM1-23" target="qDiHMPchY2UX4QFsWSM1-26">
          <mxGeometry relative="1" as="geometry" />
        </mxCell>
        <mxCell id="qDiHMPchY2UX4QFsWSM1-23" value="Choose starting point" style="rounded=1;whiteSpace=wrap;html=1;fontSize=12;glass=0;strokeWidth=1;shadow=0;" vertex="1" parent="WIyWlLk6GJQsqaUBKTNV-1">
          <mxGeometry x="180" y="190" width="120" height="40" as="geometry" />
        </mxCell>
        <mxCell id="qDiHMPchY2UX4QFsWSM1-31" style="edgeStyle=orthogonalEdgeStyle;rounded=0;orthogonalLoop=1;jettySize=auto;html=1;exitX=0.5;exitY=1;exitDx=0;exitDy=0;entryX=0.5;entryY=0;entryDx=0;entryDy=0;" edge="1" parent="WIyWlLk6GJQsqaUBKTNV-1" source="qDiHMPchY2UX4QFsWSM1-26" target="qDiHMPchY2UX4QFsWSM1-30">
          <mxGeometry relative="1" as="geometry" />
        </mxCell>
        <mxCell id="qDiHMPchY2UX4QFsWSM1-32" value="Yes" style="edgeLabel;html=1;align=center;verticalAlign=middle;resizable=0;points=[];" vertex="1" connectable="0" parent="qDiHMPchY2UX4QFsWSM1-31">
          <mxGeometry x="-0.0971" y="-1" relative="1" as="geometry">
            <mxPoint as="offset" />
          </mxGeometry>
        </mxCell>
        <mxCell id="qDiHMPchY2UX4QFsWSM1-33" style="edgeStyle=orthogonalEdgeStyle;rounded=0;orthogonalLoop=1;jettySize=auto;html=1;exitX=1;exitY=0.5;exitDx=0;exitDy=0;entryX=1;entryY=0.5;entryDx=0;entryDy=0;" edge="1" parent="WIyWlLk6GJQsqaUBKTNV-1" source="qDiHMPchY2UX4QFsWSM1-26" target="qDiHMPchY2UX4QFsWSM1-0">
          <mxGeometry relative="1" as="geometry">
            <mxPoint x="340" y="310.28571428571433" as="targetPoint" />
          </mxGeometry>
        </mxCell>
        <mxCell id="qDiHMPchY2UX4QFsWSM1-34" value="No" style="edgeLabel;html=1;align=center;verticalAlign=middle;resizable=0;points=[];" vertex="1" connectable="0" parent="qDiHMPchY2UX4QFsWSM1-33">
          <mxGeometry x="-0.0331" relative="1" as="geometry">
            <mxPoint as="offset" />
          </mxGeometry>
        </mxCell>
        <mxCell id="qDiHMPchY2UX4QFsWSM1-26" value="Does node have unvisited neighbours?" style="rhombus;whiteSpace=wrap;html=1;" vertex="1" parent="WIyWlLk6GJQsqaUBKTNV-1">
          <mxGeometry x="170" y="240" width="140" height="140" as="geometry" />
        </mxCell>
        <mxCell id="qDiHMPchY2UX4QFsWSM1-50" value="" style="edgeStyle=orthogonalEdgeStyle;rounded=0;orthogonalLoop=1;jettySize=auto;html=1;" edge="1" parent="WIyWlLk6GJQsqaUBKTNV-1" source="qDiHMPchY2UX4QFsWSM1-30" target="qDiHMPchY2UX4QFsWSM1-49">
          <mxGeometry relative="1" as="geometry" />
        </mxCell>
        <mxCell id="qDiHMPchY2UX4QFsWSM1-30" value="Add all unvisited neighbours to queue" style="rounded=1;whiteSpace=wrap;html=1;fontSize=12;glass=0;strokeWidth=1;shadow=0;" vertex="1" parent="WIyWlLk6GJQsqaUBKTNV-1">
          <mxGeometry x="180" y="420" width="120" height="40" as="geometry" />
        </mxCell>
        <mxCell id="qDiHMPchY2UX4QFsWSM1-41" style="edgeStyle=orthogonalEdgeStyle;rounded=0;orthogonalLoop=1;jettySize=auto;html=1;entryX=0;entryY=0.5;entryDx=0;entryDy=0;" edge="1" parent="WIyWlLk6GJQsqaUBKTNV-1" source="qDiHMPchY2UX4QFsWSM1-39" target="qDiHMPchY2UX4QFsWSM1-26">
          <mxGeometry relative="1" as="geometry">
            <mxPoint x="120" y="310" as="targetPoint" />
            <Array as="points">
              <mxPoint x="130" y="800" />
              <mxPoint x="130" y="310" />
            </Array>
          </mxGeometry>
        </mxCell>
        <mxCell id="qDiHMPchY2UX4QFsWSM1-43" value="No" style="edgeLabel;html=1;align=center;verticalAlign=middle;resizable=0;points=[];" vertex="1" connectable="0" parent="qDiHMPchY2UX4QFsWSM1-41">
          <mxGeometry x="-0.0926" y="-1" relative="1" as="geometry">
            <mxPoint as="offset" />
          </mxGeometry>
        </mxCell>
        <mxCell id="qDiHMPchY2UX4QFsWSM1-45" value="" style="edgeStyle=orthogonalEdgeStyle;rounded=0;orthogonalLoop=1;jettySize=auto;html=1;" edge="1" parent="WIyWlLk6GJQsqaUBKTNV-1" source="qDiHMPchY2UX4QFsWSM1-39" target="qDiHMPchY2UX4QFsWSM1-44">
          <mxGeometry relative="1" as="geometry" />
        </mxCell>
        <mxCell id="qDiHMPchY2UX4QFsWSM1-47" value="Yes" style="edgeLabel;html=1;align=center;verticalAlign=middle;resizable=0;points=[];" vertex="1" connectable="0" parent="qDiHMPchY2UX4QFsWSM1-45">
          <mxGeometry x="-0.0185" y="1" relative="1" as="geometry">
            <mxPoint as="offset" />
          </mxGeometry>
        </mxCell>
        <mxCell id="qDiHMPchY2UX4QFsWSM1-39" value="Is current node the goal node?" style="rhombus;whiteSpace=wrap;html=1;rounded=1;glass=0;strokeWidth=1;shadow=0;" vertex="1" parent="WIyWlLk6GJQsqaUBKTNV-1">
          <mxGeometry x="180" y="740" width="120" height="120" as="geometry" />
        </mxCell>
        <mxCell id="qDiHMPchY2UX4QFsWSM1-44" value="Backtrack through &quot;previous node&quot; variables of the path and output as a list." style="shape=parallelogram;perimeter=parallelogramPerimeter;whiteSpace=wrap;html=1;fixedSize=1;rounded=1;glass=0;strokeWidth=1;shadow=0;" vertex="1" parent="WIyWlLk6GJQsqaUBKTNV-1">
          <mxGeometry x="360" y="760" width="180" height="80" as="geometry" />
        </mxCell>
        <mxCell id="qDiHMPchY2UX4QFsWSM1-53" style="edgeStyle=orthogonalEdgeStyle;rounded=0;orthogonalLoop=1;jettySize=auto;html=1;exitX=0.5;exitY=1;exitDx=0;exitDy=0;entryX=0.5;entryY=0;entryDx=0;entryDy=0;" edge="1" parent="WIyWlLk6GJQsqaUBKTNV-1" source="qDiHMPchY2UX4QFsWSM1-49" target="qDiHMPchY2UX4QFsWSM1-0">
          <mxGeometry relative="1" as="geometry" />
        </mxCell>
        <mxCell id="qDiHMPchY2UX4QFsWSM1-49" value="Set &quot;previous node&quot; variable to the current node for all nodes added to the queue" style="rounded=1;whiteSpace=wrap;html=1;fontSize=12;glass=0;strokeWidth=1;shadow=0;" vertex="1" parent="WIyWlLk6GJQsqaUBKTNV-1">
          <mxGeometry x="180" y="500" width="120" height="70" as="geometry" />
        </mxCell>
      </root>
    </mxGraphModel>
  </diagram>
</mxfile>
